<?xml version="1.0" encoding="UTF-8"?>
<svg id="Layer_1" data-name="Layer 1" xmlns="http://www.w3.org/2000/svg" viewBox="0 0 800 800">
  <defs>
    <style>
      .cls-1 {
        fill: #ce181e;
      }

      .cls-1, .cls-2, .cls-3 {
        stroke-width: 0px;
      }

      .cls-2 {
        fill: #fff;
      }

      .cls-3 {
        fill: #001844;
      }
    </style>
  </defs>
  <rect class="cls-2" width="800" height="800"/>
  <g>
    <g>
      <path class="cls-3" d="m246.09,350.31c-4.43-.92-9.96-1.42-14.44-1.42-24.98,0-49.55,14.33-53.08,36.13-.15.91,0,3.68,0,3.68h48.73c2.35,0,4.26,1.94,4.26,4.33v14.06c0,2.39-1.91,4.33-4.26,4.33h-48.73s-.15,2.77,0,3.68c3.53,21.79,28.1,36.13,53.08,36.13,4.47,0,10-.5,14.44-1.42v-99.49Z"/>
      <path class="cls-3" d="m680.73,345.61c.91-.47,1.54-1.02,2.02-1.76.42-.75.63-1.53.63-2.33,0-.73-.16-1.41-.48-1.99-.32-.61-.73-1.07-1.26-1.41-.55-.33-1.33-.45-2.34-.45h-4.29v14.36h2.12v-6.03h1.59c.22,0,.54.44,1.06,1.4l.42.85,1.87,3.78h2.37l-2.23-4.41c-.51-1.08-1-1.75-1.48-2.02m-2.12-1.36h-1.48v-4.87h1.59c.75,0,1.27.11,1.54.34.33.22.53.49.7.79.14.34.26.73.26,1.13,0,.61-.21,1.25-.58,1.81-.37.5-1.05.79-2.02.79"/>
      <path class="cls-3" d="m667.62,344.82c0-6.43,5.13-11.65,11.46-11.65h0c6.33,0,11.46,5.22,11.46,11.65h0c0,6.43-5.13,11.64-11.46,11.65h0c-6.33,0-11.46-5.21-11.46-11.65h0Zm1.58,0c.01,5.54,4.43,10.03,9.88,10.04h0c5.46,0,9.87-4.5,9.88-10.04h0c-.01-5.54-4.42-10.03-9.88-10.04h0c-5.46,0-9.87,4.5-9.88,10.04h0Z"/>
      <path class="cls-3" d="m328.94,383.1c0-25.24-14.15-45.73-61.63-45.73v135.65h13.39v-44.5c31.82-5.19,48.24-28.42,48.24-45.42Zm-48.22,33.05v-66.04c19.6,3.81,34.07,17.15,34.07,33.02s-14.47,29.22-34.07,33.02Z"/>
      <rect class="cls-3" x="349.14" y="337.37" width="13.73" height="135.66"/>
      <path class="cls-3" d="m507,411.28c0,26.1-13.76,47.26-30.74,47.26s-30.74-21.16-30.74-47.26c0-.07,0-73.84,0-73.91h-13.71c0,.07,0,73.84,0,73.91,0,34,19.9,61.56,44.45,61.56s44.45-27.56,44.45-61.56c0-.07,0-73.84,0-73.91h-13.71c0,.07,0,73.84,0,73.91Z"/>
      <polygon class="cls-3" points="600.77 470.86 653.57 473.92 652.82 458.1 614.5 457.85 614.5 410.12 646.82 410.88 646.82 395.99 614.5 396.75 614.5 352.71 650.99 352.71 650.24 337.23 600.77 340.28 600.77 470.86"/>
      <path class="cls-3" d="m537.23,461.03s.02,0,.12-.05h0c.11-.04.27-.1.5-.2h0c.45-.18,1.12-.45,1.96-.81h0c.85-.36,1.87-.81,3.02-1.35h0c1.15-.53,2.43-1.15,3.8-1.85h0c1.37-.7,2.82-1.46,4.31-2.31h0c1.49-.84,3.02-1.75,4.53-2.72h0c1.52-.97,3.03-2,4.48-3.08h0c1.45-1.08,2.84-2.21,4.13-3.37h0c1.29-1.16,2.47-2.35,3.51-3.55h0c1.03-1.2,1.92-2.4,2.64-3.58h0c.71-1.18,1.26-2.34,1.62-3.45h0c.37-1.12.57-2.19.61-3.27h0v.05-.05h0s0,0,0-.01h0c0-.17,0-.3,0-.41h0c0-.96-.12-1.93-.41-2.98h0c-.33-1.2-.87-2.51-1.74-3.96h0c-.87-1.44-2.06-3.01-3.66-4.69h0s-.05-.05-.09-.08h0c-.11-.09-.28-.24-.49-.42h0c-.43-.35-1.03-.82-1.72-1.36h0c-1.39-1.07-3.17-2.38-4.98-3.71h0c-3.66-2.68-7.35-5.31-9.02-6.6h0c-3.13-2.41-5.79-4.85-8.03-7.33h0c-2.25-2.48-4.07-5-5.48-7.59h0c-1.4-2.58-2.38-5.24-2.92-7.88h0c-.34-1.66-.5-3.32-.5-4.93h0c0-1,.06-1.97.18-2.91h0c.3-2.53.98-4.94,1.93-7.18h0c.95-2.24,2.15-4.32,3.52-6.26h0c1.37-1.94,2.91-3.73,4.54-5.4h0c1.63-1.67,3.37-3.22,5.15-4.67h0c1.79-1.45,3.62-2.79,5.45-4.03h0c1.83-1.24,3.67-2.39,5.45-3.43h0c1.78-1.05,3.52-1.99,5.16-2.85h0c1.64-.85,3.18-1.6,4.57-2.25h0c1.4-.65,2.64-1.2,3.69-1.65h0c1.05-.45,1.9-.79,2.5-1.04h0c.6-.23.95-.36,1-.38h0s5,13.17,5,13.17c0,0-.02.01-.14.05h0c-.12.05-.3.11-.54.21h0c-.49.19-1.21.49-2.13.88h0c-.92.39-2.02.88-3.25,1.46h0c-1.23.58-2.6,1.24-4.05,2h0c-1.45.75-2.98,1.59-4.52,2.49h0c-1.55.91-3.13,1.89-4.66,2.93h0c-1.54,1.04-3.05,2.15-4.47,3.3h0c-1.42,1.15-2.75,2.35-3.94,3.56h0c-1.19,1.22-2.24,2.45-3.11,3.69h0c-.87,1.23-1.56,2.44-2.05,3.62h0c-.5,1.18-.8,2.31-.94,3.43h0c-.05.43-.08.86-.08,1.28h0c0,.71.07,1.42.22,2.18h0c.25,1.21.71,2.53,1.51,4.01h0c.8,1.47,1.94,3.1,3.54,4.86h0c1.59,1.76,3.64,3.65,6.2,5.63h0c1,.78,4.13,3.03,7.33,5.36h0c3.24,2.37,6.59,4.82,8.73,6.58h0c.64.54,1.14.95,1.79,1.62h0c2.24,2.34,4.09,4.73,5.57,7.18h0c1.48,2.45,2.57,4.96,3.25,7.49h0c.6,2.21.9,4.44.89,6.61h0c0,.33,0,.62-.01.88h0v.13s0-.07,0-.07c-.09,2.47-.56,4.86-1.3,7.09h0c-.74,2.24-1.75,4.34-2.94,6.31h0c-1.19,1.96-2.55,3.79-4.03,5.5h0c-1.48,1.71-3.08,3.31-4.74,4.81h0c-1.67,1.5-3.39,2.9-5.16,4.21h0c-1.76,1.31-3.54,2.53-5.31,3.66h0c-1.76,1.13-3.52,2.18-5.21,3.13h0c-1.69.96-3.34,1.83-4.87,2.61h0c-1.54.78-2.98,1.48-4.28,2.07h0c-1.29.6-2.44,1.1-3.41,1.52h0c-.97.42-1.75.73-2.29.95h0c-.55.22-.88.34-.92.36h0l-5.06-13.15h0Zm35.24-29.6h0s0,.02,0,.02h0s0-.02,0-.02h0Z"/>
    </g>
    <g>
      <path class="cls-1" d="m246.09,473.02v-12.12h-15.03c-49.26-.03-89.17-27.54-89.17-61.48s39.92-61.45,89.17-61.48h15.03v-12.12h-15.03c-61.14.03-108.43,29.05-108.43,73.6s47.29,73.57,108.43,73.6h15.03Z"/>
      <path class="cls-1" d="m398,409.34c5.4,0,9.81-4.46,9.81-9.96s-4.4-9.98-9.81-9.98-9.81,4.47-9.81,9.98,4.39,9.96,9.81,9.96"/>
    </g>
  </g>
</svg>